<?xml version="1.0" encoding="UTF-8" standalone="no"?>
<svg
   xmlns:dc="http://purl.org/dc/elements/1.1/"
   xmlns:cc="http://creativecommons.org/ns#"
   xmlns:rdf="http://www.w3.org/1999/02/22-rdf-syntax-ns#"
   xmlns:svg="http://www.w3.org/2000/svg"
   xmlns="http://www.w3.org/2000/svg"
   xmlns:sodipodi="http://sodipodi.sourceforge.net/DTD/sodipodi-0.dtd"
   xmlns:inkscape="http://www.inkscape.org/namespaces/inkscape"
   width="27px"
   height="32px"
   viewBox="0 0 27 32"
   version="1.1"
   id="svg845"
   sodipodi:docname="ic-logo-purple.png"
   inkscape:version="0.92.3 (2405546, 2018-03-11)">
  <metadata
     id="metadata849">
    <rdf:RDF>
      <cc:Work
         rdf:about="">
        <dc:format>image/svg+xml</dc:format>
        <dc:type
           rdf:resource="http://purl.org/dc/dcmitype/StillImage" />
        <dc:title>ic_home</dc:title>
      </cc:Work>
    </rdf:RDF>
  </metadata>
  <sodipodi:namedview
     pagecolor="#ffffff"
     bordercolor="#666666"
     borderopacity="1"
     objecttolerance="10"
     gridtolerance="10"
     guidetolerance="10"
     inkscape:pageopacity="0"
     inkscape:pageshadow="2"
     inkscape:window-width="1366"
     inkscape:window-height="706"
     id="namedview847"
     showgrid="false"
     inkscape:zoom="16.78125"
     inkscape:cx="13.5"
     inkscape:cy="16"
     inkscape:window-x="-8"
     inkscape:window-y="-8"
     inkscape:window-maximized="1"
     inkscape:current-layer="svg845" />
  <!-- Generator: Sketch 41.2 (35397) - http://www.bohemiancoding.com/sketch -->
  <title
     id="title815">ic_home</title>
  <desc
     id="desc817">Created with Sketch.</desc>
  <defs
     id="defs832">
    <filter
       x="-50%"
       y="-50%"
       width="200%"
       height="200%"
       filterUnits="objectBoundingBox"
       id="filter-1">
      <feOffset
         dx="0"
         dy="2"
         in="SourceAlpha"
         result="shadowOffsetOuter1"
         id="feOffset819" />
      <feGaussianBlur
         stdDeviation="2"
         in="shadowOffsetOuter1"
         result="shadowBlurOuter1"
         id="feGaussianBlur821" />
      <feColorMatrix
         values="0 0 0 0 0   0 0 0 0 0   0 0 0 0 0  0 0 0 0.05 0"
         type="matrix"
         in="shadowBlurOuter1"
         result="shadowMatrixOuter1"
         id="feColorMatrix823" />
      <feMerge
         id="feMerge829">
        <feMergeNode
           in="shadowMatrixOuter1"
           id="feMergeNode825" />
        <feMergeNode
           in="SourceGraphic"
           id="feMergeNode827" />
      </feMerge>
    </filter>
  </defs>
  <path
     inkscape:connector-curvature="0"
     d="m 23.866581,9.7324739 -1.148484,0.8263111 -1.850043,1.330969 C 20.619055,10.732866 19.898195,9.738373 18.901124,9.091703 L 22.462626,6.5294388 21.359696,5.1697335 C 20.908933,4.6137596 21.021864,3.8186392 21.61217,3.3938675 l 2.684913,3.3080707 c 0.397534,0.4900344 0.536359,1.0887176 0.440693,1.653133 -0.08943,0.5283104 -0.384107,1.0269261 -0.871195,1.3774027 z"
     id="Shape-1"
     style="fill:#875e8f;fill-opacity:0.94117647;stroke-width:1.23848379" />
  <path
     inkscape:connector-curvature="0"
     d="m 12.577864,21.298639 c 3.972344,-1.934365 7.509747,-2.481334 8.402041,-1.152823 0.732847,1.090949 -0.51394,3.159932 -2.954531,5.278823 l 2.316751,3.500245 h 1.577906 c 0.725776,0.01874 1.30841,0.577203 1.30841,1.265057 h -2.049049 -2.716563 l -0.837267,-1.265057 -1.342576,-2.028562 -0.524729,-0.792411 c 0.185099,-0.285438 0.292635,-0.620106 0.292635,-0.978938 0,-1.039432 -0.894691,-1.88223 -1.998581,-1.88223 -0.06125,0 -0.121084,0.0055 -0.180903,0.01036 z"
     id="path835-8"
     style="fill:#875e8f;fill-opacity:0.94117647;stroke-width:1.23848379" />
  <path
     inkscape:connector-curvature="0"
     d="m 1.4671751,9.2444724 c 0.2073973,-0.9402969 1.09166,-1.6471491 2.1516684,-1.6471491 0.3025862,0 0.5907871,0.057809 0.8528513,0.1618017 0.7901545,0.3138083 1.3450945,1.0498481 1.3450945,1.9083118 v 9.8167212 c 0,0.699371 0.602055,1.266749 1.3450956,1.266749 0.540913,0 1.0061805,-0.301585 1.2196944,-0.735248 0.01894,-0.0385 0.035967,-0.07828 0.050833,-0.118698 L 9.6813602,16.981624 7.2570763,9.2778926 c -0.00167,-0.0049 -0.00398,-0.010144 -0.00565,-0.01535 C 7.2219321,9.1762757 7.1960398,9.090014 7.1707384,9.0035244 6.2878134,5.9848442 7.8767498,2.8336072 10.847824,1.541904 l 5.710055,1.8698076 c 0.70096,0.2254792 1.075716,0.942042 0.839905,1.6025716 L 15.951747,4.5272975 c -0.571604,-0.1925412 -1.200514,0.087818 -1.404914,0.6259514 -0.204402,0.5381343 0.09326,1.1306916 0.664754,1.3231217 l 1.491951,0.5024259 C 16.443031,7.6280351 15.675537,7.9599944 14.98225,7.7203117 L 13.40662,7.1752623 c -0.111845,0.5971017 0.244441,1.2008103 0.871075,1.4116145 l 3.018428,1.0344927 c 1.273403,0.5126165 2.176606,1.6796665 2.239185,3.0517615 0.0023,0.05036 0.006,0.100492 0.006,0.15133 0,0.03113 -0.0033,0.06165 -0.0044,0.09259 0.006,-0.01426 0.0098,-0.0237 0.0098,-0.0237 h 4.711433 v -1.711094 c 0,-0.478179 0.62783,-0.894032 1.025723,-1.109692 l 0.319395,-0.1571766 v 4.1932936 c -0.01703,1.180373 -1.036754,2.132554 -2.294091,2.132554 h -5.314201 c -0.470661,0 -0.928138,0.05273 -1.366432,0.151668 0.02141,-0.0049 0.04249,-0.01216 0.06381,-0.01793 -0.02297,0.0063 -0.04594,0.01267 -0.06933,0.01793 -0.01367,0.0031 -0.02745,0.0065 -0.04124,0.0098 -2.368419,0.552023 -4.167152,2.464425 -4.406678,4.806767 -0.0041,0.04087 -0.0067,0.08218 -0.0099,0.123498 -0.01064,0.135719 -0.01774,0.272115 -0.01774,0.410319 0,1.318574 0.492842,2.528531 1.314043,3.476336 0.06019,0.06954 0.122163,0.137751 0.185822,0.204341 0.167715,0.225143 0.267099,0.49884 0.267099,0.794895 0,0.766213 -0.659719,1.387453 -1.473368,1.387453 -0.292757,0 -0.565372,-0.0804 -0.79459,-0.218796 L 8.6634334,25.729324 c -0.4115606,0.21679 -0.6899301,0.630468 -0.6899301,1.106077 0,0.314317 0.1215593,0.60224 0.322966,0.823547 l 1.2379188,1.265958 h 1.5100529 7.2e-4 0.07313 c 0.725538,0.01875 1.308172,0.577209 1.308172,1.265064 H 9.736751 9.7362715 8.1123304 c 0,-1.194149 -1.027763,-2.162024 -2.2955324,-2.162024 v -3.687904 c 1.0519772,-0.197369 1.8450075,-1.071047 1.8450075,-2.119793 0,-0.0526 -0.0027,-0.104778 -0.00655,-0.156692 -0.1345092,0.01895 -0.2706967,0.03204 -0.4108407,0.03204 -0.522931,0 -1.0101383,-0.138881 -1.4275735,-0.375966 C 5.0116916,21.262507 4.4717346,20.433768 4.4717346,19.484158 V 9.6674368 c 0,-0.4574029 -0.3936965,-0.8280621 -0.879223,-0.8280621 -0.468386,0 -0.8502158,0.3452543 -0.8765913,0.7804419 0.6039748,0.3894024 1.0005497,1.0430724 1.0005497,1.7845324 0,1.194034 -1.0276422,2.161911 -2.2955324,2.161911 V 9.6674368 c 0,-0.1449782 0.016062,-0.2862298 0.046272,-0.4229644 z"
     id="path837-1"
     style="fill:#875e8f;fill-opacity:0.94117647;stroke-width:1.23848379" />
</svg>
