<?xml version="1.0" encoding="UTF-8" standalone="no"?>
<svg
   xmlns:dc="http://purl.org/dc/elements/1.1/"
   xmlns:cc="http://creativecommons.org/ns#"
   xmlns:rdf="http://www.w3.org/1999/02/22-rdf-syntax-ns#"
   xmlns:svg="http://www.w3.org/2000/svg"
   xmlns="http://www.w3.org/2000/svg"
   xmlns:sodipodi="http://sodipodi.sourceforge.net/DTD/sodipodi-0.dtd"
   xmlns:inkscape="http://www.inkscape.org/namespaces/inkscape"
   width="27px"
   height="32px"
   viewBox="0 0 27 32"
   version="1.1"
   id="svg845"
   sodipodi:docname="ic-logo-gold.svg"
   inkscape:version="0.92.3 (2405546, 2018-03-11)">
  <metadata
     id="metadata849">
    <rdf:RDF>
      <cc:Work
         rdf:about="">
        <dc:format>image/svg+xml</dc:format>
        <dc:type
           rdf:resource="http://purl.org/dc/dcmitype/StillImage" />
        <dc:title>ic_home</dc:title>
      </cc:Work>
    </rdf:RDF>
  </metadata>
  <sodipodi:namedview
     pagecolor="#ffffff"
     bordercolor="#666666"
     borderopacity="1"
     objecttolerance="10"
     gridtolerance="10"
     guidetolerance="10"
     inkscape:pageopacity="0"
     inkscape:pageshadow="2"
     inkscape:window-width="1366"
     inkscape:window-height="706"
     id="namedview847"
     showgrid="false"
     inkscape:zoom="16.78125"
     inkscape:cx="3.8165736"
     inkscape:cy="16"
     inkscape:window-x="-8"
     inkscape:window-y="-8"
     inkscape:window-maximized="1"
     inkscape:current-layer="svg845" />
  <!-- Generator: Sketch 41.2 (35397) - http://www.bohemiancoding.com/sketch -->
  <title
     id="title815">ic_home</title>
  <desc
     id="desc817">Created with Sketch.</desc>
  <defs
     id="defs832">
    <filter
       x="-50%"
       y="-50%"
       width="200%"
       height="200%"
       filterUnits="objectBoundingBox"
       id="filter-1">
      <feOffset
         dx="0"
         dy="2"
         in="SourceAlpha"
         result="shadowOffsetOuter1"
         id="feOffset819" />
      <feGaussianBlur
         stdDeviation="2"
         in="shadowOffsetOuter1"
         result="shadowBlurOuter1"
         id="feGaussianBlur821" />
      <feColorMatrix
         values="0 0 0 0 0   0 0 0 0 0   0 0 0 0 0  0 0 0 0.05 0"
         type="matrix"
         in="shadowBlurOuter1"
         result="shadowMatrixOuter1"
         id="feColorMatrix823" />
      <feMerge
         id="feMerge829">
        <feMergeNode
           in="shadowMatrixOuter1"
           id="feMergeNode825" />
        <feMergeNode
           in="SourceGraphic"
           id="feMergeNode827" />
      </feMerge>
    </filter>
  </defs>
  <path
     inkscape:connector-curvature="0"
     d="M 21.033865,10.668015 20.14009,11.36026 18.700347,12.475284 C 18.506571,11.506097 17.945583,10.672957 17.169641,10.131207 L 19.941277,7.984661 19.082954,6.845563 C 18.732161,6.379794 18.820046,5.713679 19.279435,5.357825 l 2.089456,2.771348 c 0.309369,0.410528 0.417406,0.912077 0.342956,1.384918 -0.0696,0.442594 -0.29892,0.860311 -0.677982,1.153924 z"
     id="Shape-1"
     style="fill:#d1bfa7;fill-opacity:1" />
  <path
     inkscape:connector-curvature="0"
     d="m 12.248746,20.357611 c 3.091362,-1.620521 5.844245,-2.078747 6.538647,-0.965781 0.570317,0.913946 -0.39996,2.647244 -2.299279,4.422352 l 1.802944,2.932343 h 1.227961 c 0.564814,0.0157 1.018232,0.483553 1.018232,1.059806 H 18.942637 16.82855 L 16.176972,26.746525 15.132151,25.04709 14.723795,24.383245 c 0.144048,-0.239127 0.227735,-0.519496 0.227735,-0.820109 0,-0.870788 -0.696268,-1.576845 -1.555338,-1.576845 -0.04767,0 -0.09423,0.0046 -0.140783,0.0087 z"
     id="path835-8"
     style="fill:#d1bfa7;fill-opacity:1" />
  <path
     inkscape:connector-curvature="0"
     d="M 3.602172,10.25919 C 3.763573,9.471453 4.451725,8.879285 5.276646,8.879285 c 0.235479,0 0.459763,0.04843 0.663707,0.13555 0.614915,0.262894 1.046781,0.879514 1.046781,1.598695 v 8.223993 c 0,0.585901 0.468532,1.061223 1.046782,1.061223 0.42095,0 0.783031,-0.252653 0.949192,-0.615956 0.01474,-0.03226 0.02799,-0.06558 0.03956,-0.09944 L 9.994625,16.741016 8.107996,10.287188 c -0.0013,-0.0041 -0.0031,-0.0085 -0.0044,-0.01286 -0.02295,-0.07227 -0.0431,-0.144536 -0.06279,-0.216993 -0.687111,-2.52891 0.549433,-5.16887 2.861586,-6.250999 l 4.443686,1.566438 c 0.545502,0.188896 0.837145,0.789199 0.653632,1.34256 L 14.874373,6.30736 c -0.444834,-0.161302 -0.934265,0.07357 -1.093334,0.524393 -0.15907,0.450824 0.07258,0.947241 0.517326,1.10845 l 1.161068,0.420909 C 15.256701,8.905014 14.65942,9.183114 14.11989,8.982319 L 12.893701,8.525702 c -0.08704,0.500224 0.19023,1.005983 0.677889,1.182585 l 2.349005,0.86665 c 0.990989,0.429446 1.693881,1.407146 1.742581,2.556624 0.0018,0.04219 0.0047,0.08419 0.0047,0.126777 0,0.02608 -0.0026,0.05165 -0.0034,0.07757 0.0047,-0.01194 0.0076,-0.01986 0.0076,-0.01986 h 3.666537 v -1.433475 c 0,-0.400596 0.488591,-0.748978 0.79824,-0.929648 l 0.248541,-0.131671 v 3.512947 c -0.01325,0.988861 -0.806824,1.786554 -1.785311,1.786554 H 16.46446 c -0.366279,0 -0.722297,0.04417 -1.063387,0.127061 0.01666,-0.0041 0.03307,-0.01019 0.04966,-0.01502 -0.01787,0.0053 -0.03575,0.01062 -0.05395,0.01502 -0.01064,0.0026 -0.02136,0.0055 -0.03209,0.0082 -1.843154,0.462459 -3.242966,2.064581 -3.429371,4.026887 -0.0032,0.03424 -0.0052,0.06884 -0.0077,0.10346 -0.0083,0.113699 -0.01381,0.227965 -0.01381,0.343746 0,1.104641 0.38354,2.118286 1.022616,2.912313 0.04684,0.05825 0.09507,0.115401 0.14461,0.171188 0.13052,0.188614 0.207863,0.417905 0.207863,0.665926 0,0.641898 -0.513408,1.162343 -1.146607,1.162343 -0.227829,0 -0.439984,-0.06735 -0.618366,-0.183297 L 9.202445,24.06941 c -0.320285,0.181616 -0.536918,0.528176 -0.536918,0.926619 0,0.26332 0.0946,0.504529 0.251339,0.68993 l 0.963375,1.060561 h 1.175155 5.6e-4 0.05691 c 0.564629,0.01571 1.018047,0.483558 1.018047,1.059811 h -2.093188 -3.74e-4 -1.263785 c 0,-1.000403 -0.799827,-1.811243 -1.786432,-1.811243 v -3.089555 c 0.818671,-0.165346 1.435824,-0.897273 1.435824,-1.775864 0,-0.04406 -0.0021,-0.08778 -0.0051,-0.131269 -0.104678,0.01587 -0.210662,0.02684 -0.319725,0.02684 -0.406956,0 -0.786111,-0.116348 -1.110968,-0.314966 C 6.36059,20.327341 5.940384,19.633062 5.940384,18.837523 V 10.61353 c 0,-0.383191 -0.306383,-0.693712 -0.68423,-0.693712 -0.364508,0 -0.661656,0.289238 -0.682182,0.653818 0.470026,0.326223 0.778649,0.873838 0.778649,1.494998 0,1.000307 -0.799733,1.811149 -1.786432,1.811149 V 10.61353 c 0,-0.121456 0.0125,-0.23979 0.03601,-0.35434 z"
     id="path837-1"
     style="fill:#bd8c7d;fill-opacity:1" />
</svg>
