<?xml version="1.0" encoding="UTF-8" standalone="no"?>
<svg
   xmlns:dc="http://purl.org/dc/elements/1.1/"
   xmlns:cc="http://creativecommons.org/ns#"
   xmlns:rdf="http://www.w3.org/1999/02/22-rdf-syntax-ns#"
   xmlns:svg="http://www.w3.org/2000/svg"
   xmlns="http://www.w3.org/2000/svg"
   xmlns:sodipodi="http://sodipodi.sourceforge.net/DTD/sodipodi-0.dtd"
   xmlns:inkscape="http://www.inkscape.org/namespaces/inkscape"
   id="svg32"
   version="1.1"
   viewBox="0 0 37.638569 48"
   height="48"
   width="37.638569"
   sodipodi:docname="ic-logo-silverfox.svg"
   inkscape:version="0.92.3 (2405546, 2018-03-11)">
  <sodipodi:namedview
     pagecolor="#ffffff"
     bordercolor="#666666"
     borderopacity="1"
     objecttolerance="10"
     gridtolerance="10"
     guidetolerance="10"
     inkscape:pageopacity="0"
     inkscape:pageshadow="2"
     inkscape:window-width="1366"
     inkscape:window-height="706"
     id="namedview945"
     showgrid="false"
     inkscape:zoom="6.75"
     inkscape:cx="7.6433274"
     inkscape:cy="23.597765"
     inkscape:window-x="-8"
     inkscape:window-y="-8"
     inkscape:window-maximized="1"
     inkscape:current-layer="svg32" />
  <metadata
     id="metadata36">
    <rdf:RDF>
      <cc:Work
         rdf:about="">
        <dc:format>image/svg+xml</dc:format>
        <dc:type
           rdf:resource="http://purl.org/dc/dcmitype/StillImage" />
        <dc:title>ic_home</dc:title>
      </cc:Work>
    </rdf:RDF>
  </metadata>
  <!-- Generator: Sketch 41.2 (35397) - http://www.bohemiancoding.com/sketch -->
  <title
     id="title2">ic_home</title>
  <desc
     id="desc4">Created with Sketch.</desc>
  <defs
     id="defs19">
    <filter
       id="filter-1"
       filterUnits="objectBoundingBox"
       height="2"
       width="2"
       y="-0.5"
       x="-0.5">
      <feOffset
         id="feOffset6"
         result="shadowOffsetOuter1"
         in="SourceAlpha"
         dy="2"
         dx="0" />
      <feGaussianBlur
         id="feGaussianBlur8"
         result="shadowBlurOuter1"
         in="shadowOffsetOuter1"
         stdDeviation="2" />
      <feColorMatrix
         id="feColorMatrix10"
         result="shadowMatrixOuter1"
         in="shadowBlurOuter1"
         type="matrix"
         values="0 0 0 0 0   0 0 0 0 0   0 0 0 0 0  0 0 0 0.05 0" />
      <feMerge
         id="feMerge16">
        <feMergeNode
           id="feMergeNode12"
           in="shadowMatrixOuter1" />
        <feMergeNode
           id="feMergeNode14"
           in="SourceGraphic" />
      </feMerge>
    </filter>
  </defs>
  <path
     style="fill:#d4d4fa;fill-opacity:1;stroke:#000000;stroke-width:0;stroke-miterlimit:4;stroke-dasharray:none;stroke-opacity:1"
     d="M 10.92429,45.726594 C 10.679757,44.243391 9.5487166,43.108684 8.0849276,42.878023 l -0.432136,-0.0681 0.02763,-2.709077 0.02763,-2.709072 0.5416701,-0.199071 C 8.8686088,36.965254 9.6154914,36.302428 9.9236664,35.707154 10.136504,35.296037 10.412172,34.060729 10.312907,33.962911 10.282434,33.932888 9.9641684,33.900576 9.6056516,33.89112 8.3888682,33.859028 7.2880005,33.290954 6.5699713,32.324659 5.8025541,31.291915 5.847183,31.835593 5.7884116,22.803383 L 5.7356167,14.688153 5.3478431,14.338019 C 4.8177179,13.859345 4.1965648,13.843712 3.6739525,14.295889 3.100861,14.791738 3.098638,15.044541 3.662099,15.6382 c 0.2634854,0.277584 0.5775443,0.721856 0.6979117,0.987271 0.2784516,0.614 0.2969561,1.613472 0.043348,2.341429 -0.3569656,1.024642 -1.4326427,1.899063 -2.5161777,2.045416 l -0.4732016,0.06393 0.032643,-3.262847 c 0.031548,-3.153823 0.040649,-3.280278 0.2722496,-3.784459 0.9323526,-2.029655 3.6187781,-2.4498 5.0952432,-0.796877 0.7674747,0.859197 0.7381771,0.499794 0.7381771,9.055362 0,5.157111 0.037051,7.819502 0.1136936,8.171754 0.1937639,0.890327 1.0155517,1.53097 1.9664978,1.53303 0.4011123,8.17e-4 1.1449393,-0.417248 1.4549213,-0.817833 0.152374,-0.196929 0.685302,-1.385422 1.184254,-2.641093 l 0.907197,-2.283046 -1.825967,-6.156746 C 10.348607,16.707278 9.4797103,13.688774 9.4220086,13.385701 9.26885,12.581189 9.2938549,10.630754 9.4676257,9.825836 10.007052,7.3276053 11.463986,5.1591064 13.521486,3.7920647 c 1.275732,-0.8476193 0.705049,-0.9205541 5.299754,0.6773239 2.227525,0.7746545 4.200566,1.4851694 4.384539,1.5789203 0.504463,0.257067 0.888194,0.8956724 0.897147,1.4930323 0.0041,0.2726923 -0.01948,0.5223728 -0.05233,0.5548458 -0.03288,0.03248 -0.606275,-0.1317044 -1.274223,-0.3648397 -1.14353,-0.3991266 -1.239764,-0.4164083 -1.647947,-0.2958931 -1.179687,0.3482956 -1.600301,1.7081088 -0.804588,2.6011748 0.225895,0.253535 0.550718,0.427337 1.266581,0.677708 0.529524,0.1852 1.070595,0.375918 1.202381,0.423813 0.237682,0.08638 0.238099,0.08965 0.05189,0.403719 -0.268085,0.452222 -0.932629,0.809217 -1.506357,0.809217 -0.402835,0 -1.188624,-0.244066 -2.807894,-0.872131 -0.150361,-0.0583 -0.181667,-0.0133 -0.181667,0.261089 0,0.565159 0.220344,1.093427 0.611226,1.465397 0.303569,0.28888 0.806885,0.513824 2.642569,1.181028 2.847696,1.035031 3.085821,1.152343 3.863148,1.903183 0.839414,0.810815 1.38131,1.874416 1.536332,3.015427 l 0.111525,0.82084 h 3.351626 3.351627 v -1.214817 c 0,-0.668148 0.03097,-1.367386 0.06881,-1.553857 0.08111,-0.399661 0.724117,-1.062687 1.367498,-1.410081 l 0.444833,-0.240188 -0.03221,3.513802 -0.03221,3.513804 -0.354374,0.644037 c -0.385265,0.700172 -0.855743,1.126095 -1.635764,1.480853 -0.490004,0.222855 -0.613077,0.229301 -5.432456,0.284522 -4.795875,0.05495 -4.95102,0.06298 -5.657779,0.293144 -2.836407,0.923652 -4.862806,2.994156 -5.67744,5.801004 -0.336571,1.159669 -0.335035,3.218712 0.0033,4.386298 0.305022,1.052721 0.768421,1.979001 1.40742,2.813262 0.616904,0.805422 0.789032,1.188204 0.789032,1.754677 0,1.250951 -1.316042,2.287273 -2.471444,1.946151 -0.227247,-0.0671 -1.429165,-0.718558 -2.670926,-1.447695 l -2.257745,-1.325706 -0.287813,0.201954 c -0.650225,0.456256 -0.911617,1.630006 -0.528091,2.37131 0.106033,0.204954 0.603901,0.813148 1.106371,1.35154 l 0.913583,0.978896 h 1.213917 c 1.334593,0 1.769595,0.09802 2.218256,0.499848 0.288979,0.258812 0.680706,0.952511 0.685365,1.213685 0.0018,0.09942 -0.666886,0.127875 -3.003579,0.127875 h -3.005872 l -0.06325,-0.383625 z"
     id="path1492"
     inkscape:connector-curvature="0" />
  <path
     style="fill:#d4d4fa;fill-opacity:1;stroke:#000000;stroke-width:0;stroke-miterlimit:4;stroke-dasharray:none;stroke-opacity:1"
     d="m 23.742288,43.081897 -1.888533,-3.028323 0.168056,-0.512791 c 0.511164,-1.559671 -0.246504,-3.225129 -1.68729,-3.708905 -0.256032,-0.08598 -0.633254,-0.156299 -0.838274,-0.156299 -0.36747,0 -0.385152,-0.01998 -1.244584,-1.406631 -0.479501,-0.773648 -0.886562,-1.43546 -0.904584,-1.470695 -0.05577,-0.109034 2.949618,-1.412015 4.337016,-1.880315 2.329483,-0.786288 4.327252,-1.097676 5.586942,-0.870826 1.205321,0.21706 1.810271,0.666272 2.032088,1.508947 0.387925,1.473703 -0.807712,3.746343 -3.361127,6.388752 l -1.019981,1.055532 1.633713,2.608661 1.633712,2.608662 1.386292,0.052 c 1.463082,0.05487 1.776928,0.143129 2.235829,0.628826 0.251557,0.266244 0.448118,0.710937 0.448118,1.013809 0,0.191589 -0.106368,0.197941 -3.314434,0.197941 h -3.314432 z"
     id="path1494"
     inkscape:connector-curvature="0" />
  <path
     style="fill:#d4d4fa;fill-opacity:1;stroke:#000000;stroke-width:0;stroke-miterlimit:4;stroke-dasharray:none;stroke-opacity:1"
     d="m 28.901818,18.008214 c -0.37519,-1.221788 -0.858217,-1.993149 -1.876446,-2.996548 l -0.679601,-0.669704 2.308131,-1.758516 c 1.26947,-0.967183 2.396978,-1.822439 2.50557,-1.900569 0.187133,-0.134637 0.154717,-0.197615 -0.62091,-1.206215 -0.450094,-0.58529 -0.900989,-1.223513 -1.00199,-1.418271 -0.23368,-0.4506095 -0.230269,-0.9671971 0.0098,-1.4873001 0.401024,-0.8687374 0.334154,-0.9176686 2.368423,1.7330321 1.017585,1.325936 2.001982,2.69088 2.187546,3.033206 0.297359,0.54856 0.33712,0.715424 0.33511,1.406303 -0.0043,1.426411 -0.346356,1.910762 -2.515408,3.56024 -0.870596,0.662057 -1.872383,1.426841 -2.226188,1.699523 l -0.643284,0.49579 z"
     id="path1496"
     inkscape:connector-curvature="0" />
</svg>
