<?xml version="1.0" encoding="UTF-8" standalone="no"?>
<svg
   xmlns:dc="http://purl.org/dc/elements/1.1/"
   xmlns:cc="http://creativecommons.org/ns#"
   xmlns:rdf="http://www.w3.org/1999/02/22-rdf-syntax-ns#"
   xmlns:svg="http://www.w3.org/2000/svg"
   xmlns="http://www.w3.org/2000/svg"
   xmlns:sodipodi="http://sodipodi.sourceforge.net/DTD/sodipodi-0.dtd"
   xmlns:inkscape="http://www.inkscape.org/namespaces/inkscape"
   width="27px"
   height="27px"
   viewBox="0 0 27 27"
   version="1.1"
   id="svg7954"
   sodipodi:docname="ic-on-campus-silverfox.svg"
   inkscape:version="0.92.3 (2405546, 2018-03-11)">
  <metadata
     id="metadata7958">
    <rdf:RDF>
      <cc:Work
         rdf:about="">
        <dc:format>image/svg+xml</dc:format>
        <dc:type
           rdf:resource="http://purl.org/dc/dcmitype/StillImage" />
        <dc:title>ic_onCampus</dc:title>
      </cc:Work>
    </rdf:RDF>
  </metadata>
  <sodipodi:namedview
     pagecolor="#393f4d"
     bordercolor="#666666"
     borderopacity="1"
     objecttolerance="10"
     gridtolerance="10"
     guidetolerance="10"
     inkscape:pageopacity="0"
     inkscape:pageshadow="2"
     inkscape:window-width="1366"
     inkscape:window-height="706"
     id="namedview7956"
     showgrid="false"
     inkscape:pagecheckerboard="false"
     inkscape:lockguides="false"
     inkscape:zoom="8.7407407"
     inkscape:cx="-3.3177966"
     inkscape:cy="13.5"
     inkscape:window-x="-8"
     inkscape:window-y="-8"
     inkscape:window-maximized="1"
     inkscape:current-layer="svg7954" />
  <!-- Generator: Sketch 41.2 (35397) - http://www.bohemiancoding.com/sketch -->
  <title
     id="title7929">ic_onCampus</title>
  <desc
     id="desc7931">Created with Sketch.</desc>
  <defs
     id="defs7946">
    <filter
       x="-50%"
       y="-50%"
       width="200%"
       height="200%"
       filterUnits="objectBoundingBox"
       id="filter-1">
      <feOffset
         dx="0"
         dy="2"
         in="SourceAlpha"
         result="shadowOffsetOuter1"
         id="feOffset7933" />
      <feGaussianBlur
         stdDeviation="2"
         in="shadowOffsetOuter1"
         result="shadowBlurOuter1"
         id="feGaussianBlur7935" />
      <feColorMatrix
         values="0 0 0 0 0   0 0 0 0 0   0 0 0 0 0  0 0 0 0.05 0"
         type="matrix"
         in="shadowBlurOuter1"
         result="shadowMatrixOuter1"
         id="feColorMatrix7937" />
      <feMerge
         id="feMerge7943">
        <feMergeNode
           in="shadowMatrixOuter1"
           id="feMergeNode7939" />
        <feMergeNode
           in="SourceGraphic"
           id="feMergeNode7941" />
      </feMerge>
    </filter>
    <filter
       x="-0.5"
       y="-0.5"
       width="2"
       height="2"
       filterUnits="objectBoundingBox"
       id="filter-1-4">
      <feOffset
         dx="0"
         dy="2"
         in="SourceAlpha"
         result="shadowOffsetOuter1"
         id="feOffset7933-9" />
      <feGaussianBlur
         stdDeviation="2"
         in="shadowOffsetOuter1"
         result="shadowBlurOuter1"
         id="feGaussianBlur7935-2" />
      <feColorMatrix
         values="0 0 0 0 0   0 0 0 0 0   0 0 0 0 0  0 0 0 0.05 0"
         type="matrix"
         in="shadowBlurOuter1"
         result="shadowMatrixOuter1"
         id="feColorMatrix7937-1" />
      <feMerge
         id="feMerge7943-8">
        <feMergeNode
           in="shadowMatrixOuter1"
           id="feMergeNode7939-4" />
        <feMergeNode
           in="SourceGraphic"
           id="feMergeNode7941-4" />
      </feMerge>
    </filter>
  </defs>
  <g
     id="OPt-2"
     transform="translate(0,2)"
     style="fill:none;fill-rule:evenodd;stroke:none;stroke-width:1">
    <g
       id="prog2_pro3_Mobile-Portrait_opt2-Copy-2"
       transform="translate(-93,-18)"
       style="fill:#000000">
      <g
         id="nav">
        <g
           id="Group-6"
           style="filter:url(#filter-1)">
          <g
             id="ic_onCampus"
             transform="translate(96,20)">
            <path
               d="M 20,2 V 4 H 15 L 11.53,9 H 14 v 2 H 12.46 L 13.339703,12.896933 16.17,19 h -2.2 L 13.04,17 H 4.38 L 3.35,19 H 1.1 L 5.23,11 H 5 C 4.55,11 4.17,10.7 4.04,10.3 L 0.87,0.84 1.82,0.5 C 2.34,0.34 2.91,0.63 3.08,1.15 L 5.72,9 H 10.1 L 13.57,4 H 10 V 2 Z M 7.5,11 5.42,15 h 6.69 l -1.85,-4 z"
               id="Shape"
               inkscape:connector-curvature="0"
               style="fill:#d4d4dc;fill-opacity:1"
               sodipodi:nodetypes="cccccccccccccccsccccccccccccccc" />
          </g>
        </g>
      </g>
    </g>
  </g>
  <path
     style="fill:#646464;fill-opacity:0;stroke:#393f4d;stroke-width:0;stroke-miterlimit:4;stroke-dasharray:none;stroke-opacity:0"
     d="m 6.2580508,22.868892 c 0,-0.03202 0.9009534,-1.800467 2.0021187,-3.929874 1.1011652,-2.129406 2.0021185,-3.905111 2.0021185,-3.946011 0,-0.0409 -0.145475,-0.07436 -0.3232775,-0.07436 -0.1911113,0 -0.4262123,-0.109569 -0.5750549,-0.268005 C 9.1988712,14.474915 8.5656183,12.744 7.524833,9.6236356 L 5.9374876,4.8646364 6.4613699,4.6861317 C 7.7162952,4.2585357 7.7046096,4.240844 9.3283974,9.0266949 l 1.3585946,4.0042371 2.218792,0.02791 2.218792,0.02791 1.716102,-2.479226 c 0.943856,-1.3635739 1.733263,-2.5216313 1.754237,-2.5734606 0.02097,-0.051829 -0.764141,-0.094235 -1.744703,-0.094235 H 15.067373 V 7.0245763 6.109322 h 4.919491 4.919492 v 0.9130231 0.913023 l -2.48669,0.030833 -2.486688,0.030833 -1.681604,2.4025419 c -0.924881,1.321399 -1.685002,2.466896 -1.689158,2.545551 -0.0056,0.105807 0.304941,0.143009 1.193716,0.143009 h 1.201271 v 0.915254 0.915254 h -0.743644 c -0.422815,0 -0.743644,0.04969 -0.743644,0.115179 0,0.06335 0.797988,1.839988 1.773305,3.948089 0.975318,2.108099 1.773305,3.858175 1.773305,3.889058 0,0.03088 -0.457138,0.05615 -1.015863,0.05615 h -1.015864 l -0.438569,-0.973779 -0.438569,-0.973778 -4.395129,0.02992 -4.3951287,0.02992 -0.5104415,0.943856 -0.5104415,0.943856 H 7.2772851 c -0.5605789,0 -1.0192343,-0.0262 -1.0192343,-0.05823 z M 17.122091,18.951483 c -0.0025,-0.04719 -0.409728,-0.961017 -0.90488,-2.03072 l -0.900277,-1.944916 -1.41878,-0.03186 -1.418779,-0.03186 -1.022739,1.968221 c -0.562506,1.082522 -1.039899,2.010682 -1.060873,2.062578 -0.02097,0.0519 1.484904,0.09436 3.346398,0.09436 1.861494,0 3.382462,-0.03861 3.37993,-0.08581 z"
     id="path8503"
     inkscape:connector-curvature="0" />
  <path
     style="fill:#646464;fill-opacity:0;stroke:#393f4d;stroke-width:0;stroke-miterlimit:4;stroke-dasharray:none;stroke-opacity:0"
     d="m 4.2559322,22.873784 c 0,-0.02933 0.9009534,-1.797068 2.0021186,-3.928298 1.1011653,-2.13123 2.0021187,-3.909137 2.0021187,-3.950903 0,-0.04177 -0.145475,-0.07594 -0.3232776,-0.07594 -0.1911113,0 -0.4262123,-0.109569 -0.575055,-0.268005 C 7.1967525,14.474915 6.5634997,12.744 5.5227143,9.6236356 L 3.935369,4.8646364 4.4592512,4.6861317 C 5.7152646,4.258165 5.7038085,4.2408383 7.3291649,9.0266949 l 1.3599054,4.0042371 2.2166937,0.0295 2.216694,0.0295 1.716101,-2.482865 C 15.782415,9.2414907 16.571822,8.0827174 16.592796,8.032015 16.613776,7.981312 15.828655,7.939829 14.848093,7.939829 H 13.065254 V 7.0245763 6.109322 h 4.919492 4.919491 v 0.9130231 0.913023 l -2.483843,0.030833 -2.483843,0.030833 -1.684518,2.4025419 c -0.926484,1.321399 -1.687886,2.466896 -1.692004,2.545551 -0.0055,0.105802 0.305046,0.143009 1.193785,0.143009 h 1.201271 v 0.915254 0.915254 h -0.743644 c -0.426373,0 -0.743644,0.0495 -0.743644,0.116017 0,0.06381 0.797987,1.836788 1.773305,3.939953 0.975317,2.103164 1.773305,3.852863 1.773305,3.888219 0,0.03536 -0.457139,0.06429 -1.015864,0.06429 H 16.98268 l -0.43857,-0.973779 -0.438569,-0.973778 -4.395129,0.02992 -4.3951283,0.02992 -0.5104416,0.943856 -0.5104415,0.943856 H 5.2751664 c -0.5605788,0 -1.0192342,-0.024 -1.0192342,-0.05334 z M 15.119973,18.951483 c -0.0025,-0.04719 -0.409728,-0.961017 -0.904881,-2.03072 l -0.900277,-1.944916 -1.418779,-0.03186 -1.41878,-0.03186 -1.0227382,1.968221 c -0.562506,1.082522 -1.0398992,2.010682 -1.0608737,2.062578 -0.020975,0.0519 1.4849046,0.09436 3.3463979,0.09436 1.861494,0 3.382463,-0.03861 3.379931,-0.08581 z"
     id="path8505"
     inkscape:connector-curvature="0" />
  <path
     style="fill:#646464;fill-opacity:0;stroke:#393f4d;stroke-width:0;stroke-miterlimit:4;stroke-dasharray:none;stroke-opacity:0"
     d="m 4.2559322,22.873784 c 0,-0.02933 0.9009534,-1.797068 2.0021186,-3.928298 1.1011653,-2.13123 2.0021187,-3.909137 2.0021187,-3.950903 0,-0.04177 -0.145475,-0.07594 -0.3232776,-0.07594 -0.1911113,0 -0.4262123,-0.109569 -0.575055,-0.268005 C 7.1967525,14.474915 6.5634997,12.744 5.5227143,9.6236356 L 3.935369,4.8646364 4.4592512,4.6861317 C 5.7152646,4.258165 5.7038085,4.2408383 7.3291649,9.0266949 l 1.3599054,4.0042371 2.2166937,0.0295 2.216694,0.0295 1.716101,-2.482865 C 15.782415,9.2414907 16.571822,8.0827174 16.592796,8.032015 16.613776,7.981312 15.828655,7.939829 14.848093,7.939829 H 13.065254 V 7.0245763 6.109322 h 4.919492 4.919491 v 0.9130231 0.913023 l -2.483843,0.030833 -2.483843,0.030833 -1.684518,2.4025419 c -0.926484,1.321399 -1.687886,2.466896 -1.692004,2.545551 -0.0055,0.105802 0.305046,0.143009 1.193785,0.143009 h 1.201271 v 0.915254 0.915254 h -0.743644 c -0.426373,0 -0.743644,0.0495 -0.743644,0.116017 0,0.06381 0.797987,1.836788 1.773305,3.939953 0.975317,2.103164 1.773305,3.852863 1.773305,3.888219 0,0.03536 -0.457139,0.06429 -1.015864,0.06429 H 16.98268 l -0.43857,-0.973779 -0.438569,-0.973778 -4.395129,0.02992 -4.3951283,0.02992 -0.5104416,0.943856 -0.5104415,0.943856 H 5.2751664 c -0.5605788,0 -1.0192342,-0.024 -1.0192342,-0.05334 z M 15.119973,18.951483 c -0.0025,-0.04719 -0.409728,-0.961017 -0.904881,-2.03072 l -0.900277,-1.944916 -1.418779,-0.03186 -1.41878,-0.03186 -1.0227382,1.968221 c -0.562506,1.082522 -1.0398992,2.010682 -1.0608737,2.062578 -0.020975,0.0519 1.4849046,0.09436 3.3463979,0.09436 1.861494,0 3.382463,-0.03861 3.379931,-0.08581 z"
     id="path8507"
     inkscape:connector-curvature="0" />
  <path
     style="fill:#ddafe9;fill-opacity:0;stroke:#393f4d;stroke-width:0;stroke-miterlimit:4;stroke-dasharray:none;stroke-opacity:0"
     d="m 4.2559322,22.873784 c 0,-0.02933 0.9009534,-1.797068 2.0021186,-3.928298 1.1011653,-2.13123 2.0021187,-3.909137 2.0021187,-3.950903 0,-0.04177 -0.145475,-0.07594 -0.3232776,-0.07594 -0.1911113,0 -0.4262123,-0.109569 -0.575055,-0.268005 C 7.1967525,14.474915 6.5634997,12.744 5.5227143,9.6236356 L 3.935369,4.8646364 4.4592512,4.6861317 C 5.7152646,4.258165 5.7038085,4.2408383 7.3291649,9.0266949 l 1.3599054,4.0042371 2.2166937,0.0295 2.216694,0.0295 1.716101,-2.482865 C 15.782415,9.2414907 16.571822,8.0827174 16.592796,8.032015 16.613776,7.981312 15.828655,7.939829 14.848093,7.939829 H 13.065254 V 7.0245763 6.109322 h 4.919492 4.919491 v 0.9130231 0.913023 l -2.483843,0.030833 -2.483843,0.030833 -1.684518,2.4025419 c -0.926484,1.321399 -1.687886,2.466896 -1.692004,2.545551 -0.0055,0.105802 0.305046,0.143009 1.193785,0.143009 h 1.201271 v 0.915254 0.915254 h -0.743644 c -0.426373,0 -0.743644,0.0495 -0.743644,0.116017 0,0.06381 0.797987,1.836788 1.773305,3.939953 0.975317,2.103164 1.773305,3.852863 1.773305,3.888219 0,0.03536 -0.457139,0.06429 -1.015864,0.06429 H 16.98268 l -0.43857,-0.973779 -0.438569,-0.973778 -4.395129,0.02992 -4.3951283,0.02992 -0.5104416,0.943856 -0.5104415,0.943856 H 5.2751664 c -0.5605788,0 -1.0192342,-0.024 -1.0192342,-0.05334 z M 15.119973,18.951483 c -0.0025,-0.04719 -0.409728,-0.961017 -0.904881,-2.03072 l -0.900277,-1.944916 -1.418779,-0.03186 -1.41878,-0.03186 -1.0227382,1.968221 c -0.562506,1.082522 -1.0398992,2.010682 -1.0608737,2.062578 -0.020975,0.0519 1.4849046,0.09436 3.3463979,0.09436 1.861494,0 3.382463,-0.03861 3.379931,-0.08581 z"
     id="path8509"
     inkscape:connector-curvature="0" />
  <path
     style="fill:#ddafe9;fill-opacity:0;stroke:#393f4d;stroke-width:0;stroke-miterlimit:4;stroke-dasharray:none;stroke-opacity:0"
     d=""
     id="path8511"
     inkscape:connector-curvature="0" />
  <path
     style="fill:#ddafe9;fill-opacity:0;stroke:#393f4d;stroke-width:0;stroke-miterlimit:4;stroke-dasharray:none;stroke-opacity:0"
     d="m 4.2559322,22.85118 c 0,-0.04177 0.9009534,-1.819673 2.0021186,-3.950903 1.1011653,-2.13123 2.0021187,-3.898965 2.0021187,-3.928299 0,-0.02933 -0.1544492,-0.05333 -0.3432203,-0.05333 -0.1887712,0 -0.439639,-0.09642 -0.5574838,-0.214263 C 7.236555,14.58147 6.4615421,12.439773 5.5417166,9.6811524 L 3.9382313,4.8721876 4.4155253,4.6899074 C 5.081037,4.4357461 5.4459303,4.461433 5.7566983,4.7843204 5.9402985,4.9750805 6.4355486,6.298627 7.3513413,9.045973 l 1.3283352,3.984959 h 2.2202555 2.220255 l 1.748268,-2.516949 1.748267,-2.5169488 -1.775734,-0.031507 -1.775734,-0.031507 V 6.9644677 5.9949153 h 4.919492 4.919491 v 0.9724576 0.9724576 h -2.451589 -2.45159 l -1.668347,2.3965555 c -0.917592,1.318105 -1.699016,2.476474 -1.736499,2.574153 -0.05896,0.153646 0.09551,0.177597 1.145361,0.177597 h 1.213512 v 0.915254 0.915254 h -0.743644 c -0.409005,0 -0.743644,0.04259 -0.743644,0.09465 0,0.05206 0.797987,1.811372 1.773305,3.909585 0.975317,2.098214 1.773305,3.859459 1.773305,3.913879 0,0.05442 -0.465346,0.08414 -1.034101,0.06605 l -1.034102,-0.0329 -0.424585,-0.940689 -0.424585,-0.940689 -4.376893,-0.0032 -4.3768936,-0.0032 -0.4822895,0.972458 -0.4822896,0.972458 h -1.061368 c -0.5837525,0 -1.0613681,-0.03417 -1.0613681,-0.07594 z m 10.8375418,-3.9569 c -0.03057,-0.07865 -0.454806,-1.00535 -0.942746,-2.059322 l -0.887163,-1.916314 h -1.343621 c -0.938917,0 -1.377343,0.04307 -1.455576,0.143009 -0.06157,0.07865 -0.5606971,1.005349 -1.1091597,2.059322 L 8.3580034,19.037288 H 11.75353 c 2.669794,0 3.383647,-0.03056 3.339944,-0.143008 z"
     id="path8513"
     inkscape:connector-curvature="0" />
  <path
     style="fill:#ddafe9;fill-opacity:0;stroke:#393f4d;stroke-width:0;stroke-miterlimit:4;stroke-dasharray:none;stroke-opacity:0"
     d="m 4.2559322,22.85118 c 0,-0.04177 0.9009534,-1.819673 2.0021186,-3.950903 1.1011653,-2.13123 2.0021187,-3.898965 2.0021187,-3.928299 0,-0.02933 -0.1544492,-0.05333 -0.3432203,-0.05333 -0.1887712,0 -0.439639,-0.09642 -0.5574838,-0.214263 C 7.236555,14.58147 6.4615421,12.439773 5.5417166,9.6811524 L 3.9382313,4.8721876 4.4155253,4.6899074 C 5.081037,4.4357461 5.4459303,4.461433 5.7566983,4.7843204 5.9402985,4.9750805 6.4355486,6.298627 7.3513413,9.045973 l 1.3283352,3.984959 h 2.2202555 2.220255 l 1.748268,-2.516949 1.748267,-2.5169488 -1.775734,-0.031507 -1.775734,-0.031507 V 6.9644677 5.9949153 h 4.919492 4.919491 v 0.9724576 0.9724576 h -2.451589 -2.45159 l -1.668347,2.3965555 c -0.917592,1.318105 -1.699016,2.476474 -1.736499,2.574153 -0.05896,0.153646 0.09551,0.177597 1.145361,0.177597 h 1.213512 v 0.915254 0.915254 h -0.743644 c -0.409005,0 -0.743644,0.04259 -0.743644,0.09465 0,0.05206 0.797987,1.811372 1.773305,3.909585 0.975317,2.098214 1.773305,3.859459 1.773305,3.913879 0,0.05442 -0.465346,0.08414 -1.034101,0.06605 l -1.034102,-0.0329 -0.424585,-0.940689 -0.424585,-0.940689 -4.376893,-0.0032 -4.3768936,-0.0032 -0.4822895,0.972458 -0.4822896,0.972458 h -1.061368 c -0.5837525,0 -1.0613681,-0.03417 -1.0613681,-0.07594 z m 10.8375418,-3.9569 c -0.03057,-0.07865 -0.454806,-1.00535 -0.942746,-2.059322 l -0.887163,-1.916314 h -1.343621 c -0.938917,0 -1.377343,0.04307 -1.455576,0.143009 -0.06157,0.07865 -0.5606971,1.005349 -1.1091597,2.059322 L 8.3580034,19.037288 H 11.75353 c 2.669794,0 3.383647,-0.03056 3.339944,-0.143008 z"
     id="path8515"
     inkscape:connector-curvature="0" />
  <path
     style="fill:#dd55ff;fill-opacity:0;stroke:#393f4d;stroke-width:0;stroke-miterlimit:4;stroke-dasharray:none;stroke-opacity:0"
     d="m 4.2559322,22.85118 c 0,-0.04177 0.9009534,-1.819673 2.0021186,-3.950903 1.1011653,-2.13123 2.0021187,-3.898965 2.0021187,-3.928299 0,-0.02933 -0.1544492,-0.05333 -0.3432203,-0.05333 -0.1887712,0 -0.439639,-0.09642 -0.5574838,-0.214263 C 7.236555,14.58147 6.4615421,12.439773 5.5417166,9.6811524 L 3.9382313,4.8721876 4.4155253,4.6899074 C 5.081037,4.4357461 5.4459303,4.461433 5.7566983,4.7843204 5.9402985,4.9750805 6.4355486,6.298627 7.3513413,9.045973 l 1.3283352,3.984959 h 2.2202555 2.220255 l 1.748268,-2.516949 1.748267,-2.5169488 -1.775734,-0.031507 -1.775734,-0.031507 V 6.9644677 5.9949153 h 4.919492 4.919491 v 0.9724576 0.9724576 h -2.451589 -2.45159 l -1.668347,2.3965555 c -0.917592,1.318105 -1.699016,2.476474 -1.736499,2.574153 -0.05896,0.153646 0.09551,0.177597 1.145361,0.177597 h 1.213512 v 0.915254 0.915254 h -0.743644 c -0.409005,0 -0.743644,0.04259 -0.743644,0.09465 0,0.05206 0.797987,1.811372 1.773305,3.909585 0.975317,2.098214 1.773305,3.859459 1.773305,3.913879 0,0.05442 -0.465346,0.08414 -1.034101,0.06605 l -1.034102,-0.0329 -0.424585,-0.940689 -0.424585,-0.940689 -4.376893,-0.0032 -4.3768936,-0.0032 -0.4822895,0.972458 -0.4822896,0.972458 h -1.061368 c -0.5837525,0 -1.0613681,-0.03417 -1.0613681,-0.07594 z m 10.8375418,-3.9569 c -0.03057,-0.07865 -0.454806,-1.00535 -0.942746,-2.059322 l -0.887163,-1.916314 h -1.343621 c -0.938917,0 -1.377343,0.04307 -1.455576,0.143009 -0.06157,0.07865 -0.5606971,1.005349 -1.1091597,2.059322 L 8.3580034,19.037288 H 11.75353 c 2.669794,0 3.383647,-0.03056 3.339944,-0.143008 z"
     id="path8519"
     inkscape:connector-curvature="0" />
  <g
     id="g8580">
    <g
       style="fill:none;fill-rule:evenodd;stroke:none;stroke-width:1"
       transform="translate(-30.854492,2.513521)"
       id="OPt-2-8">
      <g
         style="fill:#000000"
         transform="translate(-93,-18)"
         id="prog2_pro3_Mobile-Portrait_opt2-Copy-2-0">
        <g
           id="nav-4">
          <g
             style="filter:url(#filter-1-4)"
             id="Group-6-5">
            <g
               transform="translate(96,20)"
               id="ic_onCampus-2" />
          </g>
        </g>
      </g>
    </g>
    <path
       style="fill:#dd55ff;fill-opacity:0;stroke:#393f4d;stroke-width:0;stroke-miterlimit:4;stroke-dasharray:none;stroke-opacity:0"
       d="m -26.633898,23.426914 c 0,-0.03973 0.900953,-1.813486 2.002118,-3.941678 1.101166,-2.128191 2.002119,-3.891861 2.002119,-3.919266 0,-0.0274 -0.18058,-0.0837 -0.401289,-0.12511 -0.236347,-0.04434 -0.473407,-0.185347 -0.576744,-0.343058 -0.178517,-0.272452 -3.255018,-9.3840407 -3.255018,-9.6402979 0,-0.2037082 1.096412,-0.5048367 1.406408,-0.3862687 0.446101,0.1706256 0.610542,0.4872764 1.252047,2.410968 0.346228,1.0382415 0.95156,2.8272776 1.345181,3.9756356 l 0.715675,2.087924 h 2.205737 2.205737 l 1.726448,-2.488348 1.726448,-2.4883472 -1.772773,-0.031507 -1.772772,-0.031507 V 7.5365016 6.5669492 h 4.976695 4.9766946 v 0.9702687 0.970269 l -2.5328016,0.03079 -2.532802,0.03079 -1.706027,2.4597461 -1.706029,2.459745 1.20705,0.03247 1.20705,0.03247 v 0.96336 0.963359 l -0.742342,0.03383 -0.742342,0.03383 1.829207,3.940128 c 1.006063,2.16707 1.829206,3.956106 1.829206,3.975635 0,0.01953 -0.464481,0.03551 -1.03218,0.03551 h -1.032179 l -0.489046,-1.00106 -0.489045,-1.001059 -4.346534,-0.02994 -4.346535,-0.02994 -0.505351,1.030997 -0.505352,1.030998 h -1.06333 c -0.584831,0 -1.063329,-0.03251 -1.063329,-0.07224 z m 10.849576,-4.043727 c -0.02097,-0.06145 -0.424259,-0.961171 -0.896186,-1.999379 l -0.858051,-1.887651 -1.430085,-1.53e-4 -1.430085,-1.53e-4 -1.001059,1.936905 c -0.550583,1.065298 -1.001059,1.965087 -1.001059,1.999532 0,0.03445 1.497298,0.06263 3.32733,0.06263 2.114803,0 3.313433,-0.04071 3.289195,-0.111728 z"
       id="path8691"
       inkscape:connector-curvature="0" />
  </g>
</svg>
